# xmcd CD Database Entry
#
# Track frame offsets:
# 150
# 13550
# 44820
# 71070
# 85625
# 121615
# 125945
# 148885
# 168485
# 182490
# 199307
# 216380
# 247295
# 267315
# 277685
#
# Disc length: 3780 seconds
#
# Revision: 1
# Processed by: cddbd v1.4PL0 Copyright (c) Steve Scherf et al.
# Submitted via: tcd 2.0b
#
DISCID=eb0ec20f
DTITLE=Flavio Guimaraes - Little Blues
DYEAR=1900
DGENRE=
TTITLE0=Telephone Blues
TTITLE1=Take Five
TTITLE2=Blues Jam For Charlie
TTITLE3=Honest I Do
TTITLE4=Blue Stu
TTITLE5=Free Delay
TTITLE6=Hoochie Coochie Man
TTITLE7=Sick And Tired
TTITLE8=Surfing
TTITLE9=Baby Please Don't Go
TTITLE10=Hand Jive
TTITLE11=Na Baixa Do Sapateiro
TTITLE12=Tin Sandwic Swing
TTITLE13=Russo's Blues
TTITLE14=Blues For Marcia
EXTD=
EXTT0=
EXTT1=
EXTT2=
EXTT3=
EXTT4=
EXTT5=
EXTT6=
EXTT7=
EXTT8=
EXTT9=
EXTT10=
EXTT11=
EXTT12=
EXTT13=
EXTT14=
PLAYORDER=
